<svg xmlns="http://www.w3.org/2000/svg" viewBox="0 0 283.46 49.1">
    <path d="M43.73 48.29V30.45c0-2.62-.07-5.57-1.07-7.58-.87-1.74-2.55-2.48-4.69-2.48a8.73 8.73 0 0 0-6.91 4 48.61 48.61 0 0 1 .33 5.61v18.29h-9.53V30.45c0-2.62 0-5.63-1.07-7.65a4.68 4.68 0 0 0-4.49-2.41 9.74 9.74 0 0 0-6.77 3.49v24.41H0V13h8.25l.67 4.3a13 13 0 0 1 10.19-5.1 11.51 11.51 0 0 1 10 5.9 13.7 13.7 0 0 1 11.74-5.9 11.66 11.66 0 0 1 9.26 4.56c2.75 3.55 3.15 8.11 3.15 13.21v18.32h-9.53zM95.56 30.65A18 18 0 0 1 78 49.09h-.88c-10.8 0-18.51-8-18.51-18.44s7.71-18.44 18.51-18.44a18 18 0 0 1 18.44 17.55q.01.44 0 .89zM77.12 20.39c-5.23 0-8.79 4.49-8.79 10.26s3.55 10.26 8.79 10.26 8.72-4.49 8.72-10.26-3.49-10.26-8.72-10.26zM110.63 0v16.7c2.55-3.29 7-4.49 10.4-4.49 9.39 0 16.43 8.32 16.43 18.58 0 9.93-7 18.31-16.5 18.31-3.69 0-8.38-1.27-10.93-5.1l-.67 4.29h-8.25V0h9.52zm0 37.09a10.1 10.1 0 0 0 8.18 3.82c6.1 0 8.92-5.43 8.92-10.4 0-5.23-3.29-10.13-8.79-10.13a9.31 9.31 0 0 0-8.32 4.69v12zM143.21 48.29v-34h9.52v34h-9.52zM168 33c.67 4.83 3.82 8.45 8.85 8.45 4.56 0 6.91-1.88 9.19-5.23l6.24 4.23c-4 5.83-8.52 8.65-16.1 8.65-10.66 0-17.84-7.44-17.84-18s7.78-18.85 17.91-18.85c9.79 0 17 6.91 17 16.3a25.54 25.54 0 0 1-.47 4.49H168zm15.56-6.51a6.78 6.78 0 0 0-6.72-6.84h-.28c-4.56 0-7 2.88-8 6.84h15zM208.59 48.29h-9.52V0h9.52v48.29zM216.08 48.29v-10h10.26v10h-10.26z" fill="#1d3a8f"/>
    <path d="M242.13 13l.74 4.83a13.3 13.3 0 0 1 10.93-5.63 11.88 11.88 0 0 1 9.39 4.63c2.75 3.55 3.15 8.11 3.15 13.14v18.32h-9.52V30.45c0-2.62-.07-5.57-1.07-7.58-.87-1.74-2.62-2.48-4.69-2.48a9.2 9.2 0 0 0-7.65 4.49v23.41h-9.52V13h8.24zM283.46 48.29h-9.52V0h9.52v48.29z" fill="#f49600"/>
    <path fill="#1d3a8f" d="M143.21 0h9.52v9.52h-9.52z"/>
</svg>
