<svg id="amac-logo-color-cmyk" xmlns="http://www.w3.org/2000/svg" viewBox="0 0 423.42 190.61"><defs><style>.cls-1{fill:#f1ca64;}.cls-2{fill:#1f1f1e;}</style></defs><path class="cls-1" d="M257.32,17.12A46,46,0,0,1,222,.59a1.64,1.64,0,0,0-2.52,0,46,46,0,0,1-35.34,16.53c-8,0-16.86-1.72-23.42-5.31a1.65,1.65,0,0,0-2.38,2l13.24,35.31a1.64,1.64,0,0,0,1.56,1.12h95.2a1.66,1.66,0,0,0,1.57-1.12L283.3,13.44a1.65,1.65,0,0,0-2.38-1.95C274.36,15.08,265.32,17.12,257.32,17.12Z" transform="translate(0 0)"/><path class="cls-2" d="M0,190.61l45.12-120h26l45.13,120H89.74L82.48,170H33.12l-7.26,20.62ZM57.63,101,41.07,147.85H74.53L58,101Z" transform="translate(0 0)"/><path class="cls-2" d="M195.34,170H174.75v-45.1c0-8.41-3.05-14.93-12.18-14.93-9.57,0-14.79,6.23-14.79,16.38V170H127.19V94h19v9.28c3.48-6.53,11-11,21.9-11,10.29,0,17.69,4.06,22,10.73,6.67-7.4,14.36-10.73,25.23-10.73,18.27,0,27.55,12.61,27.55,30.3V170H222.31v-45.1c0-8.41-3-14.93-12.18-14.93-9.72,0-14.79,6.23-14.79,16.82Z" transform="translate(0 0)"/><path class="cls-2" d="M335,94v76H316v-9.28c-4.79,7-13.34,11-24.07,11-22,0-35-17.69-35-39.73s12.91-39.73,35-39.73c10.73,0,19.28,4.06,24.07,11V94Zm-38.71,16.38c-11.46,0-18.71,9.28-18.71,21.61s7.25,21.6,18.71,21.6S315,144.28,315,132,307.71,110.35,296.26,110.35Z" transform="translate(0 0)"/><path class="cls-2" d="M387.17,92.23c23.64,0,34.8,16.67,36.25,29.58H402.25c-1.59-6.53-7.68-11.31-15.22-11.31-11,0-17.4,8.7-17.4,21.46S376,153.42,387,153.42c7.54,0,13.63-4.78,15.22-11.31h21.17c-1.45,12.9-12.61,29.58-36.25,29.58-22,0-38.13-17.11-38.13-39.73S365.13,92.23,387.17,92.23Z" transform="translate(0 0)"/></svg>