<?xml version="1.0" encoding="UTF-8"?>
<svg width="900px" height="300px" viewBox="0 0 900 300" version="1.1" xmlns="http://www.w3.org/2000/svg" xmlns:xlink="http://www.w3.org/1999/xlink">
    <defs></defs>
    <g id="Page-1" stroke="none" stroke-width="1" fill="none" fill-rule="evenodd">
        <g id="Artboard" fill="#D9222A">
            <g id="Media_Markt-1-Copy" transform="translate(20.000000, 93.000000)">
                <path d="M751.367185,42.1118488 L751.626533,40.4771025 C751.753761,39.8212462 751.567813,39.1360232 751.146983,38.6172114 C750.711473,38.1081886 750.080229,37.8047327 749.41473,37.8047327 L737.670642,37.8047327 C736.584314,37.7900494 735.635,38.558478 735.429479,39.6352571 L735.101623,41.4119425 L722.555022,109.997872 C722.442474,110.658623 722.643103,111.34874 723.083506,111.862657 C723.528803,112.37168 724.204088,112.675136 724.879373,112.660453 L730.673123,112.572353 L736.119444,112.572353 C737.205772,112.572353 738.111045,111.813713 738.326354,110.771195 L746.933792,68.2041624 C749.77684,57.4167943 756.92116,54.2060351 763.243394,53.2711951 C763.581036,53.227145 764.858206,53.2467228 765.127341,53.0705226 C760.796709,78.8789581 755.668457,109.43501 755.580376,109.944033 C755.467829,110.5901 755.65867,111.26064 756.084394,111.774557 C756.510117,112.278686 757.151148,112.572353 757.797073,112.572353 L770.446435,112.572353 C771.430002,112.572353 772.310809,111.940969 772.594624,110.986551 C773.000774,109.743361 776.024877,92.2065458 777.840317,81.6736891 C782.523272,88.7755363 797.477411,111.534729 797.477411,111.534729 C797.898241,112.171008 798.607779,112.54788 799.366252,112.54788 L814.481872,112.572353 C814.7559,112.572353 815.005462,112.508725 815.259918,112.425519 C815.58288,112.572353 815.940096,112.670242 816.292419,112.660453 L829.054328,112.572353 C830.155336,112.567458 831.080183,111.774557 831.261238,110.712462 C831.261238,110.712462 840.504814,57.3140109 841.111592,53.8095846 C844.081867,53.8046902 855.762342,53.7900068 855.762342,53.7900068 C856.858456,53.7900068 857.797983,52.9971059 857.988825,51.9154324 L859.960853,40.4330524 C859.98532,40.3057967 860,40.1883299 860,40.0512853 C860,39.5324736 859.809159,39.0136619 859.476409,38.6074225 C859.045793,38.0983997 858.414548,37.8047327 857.73437,37.8047327 L843.303821,37.8047327 C844.008467,33.7472336 846.577486,18.7751107 846.577486,18.7751107 C846.592166,18.6429605 846.606846,18.5157048 846.606846,18.3933435 C846.606846,17.8500596 846.425791,17.3361423 846.078362,16.9347974 C845.657532,16.4159857 845.011608,16.1321076 844.355896,16.1321076 L831.672281,16.1321076 C830.576166,16.1321076 829.636639,16.9250085 829.445797,18.0017875 C829.445797,18.0017875 826.622323,34.7359125 826.098732,37.8047327 C824.953684,37.8389939 823.769488,37.8634661 823.769488,37.8634661 L821.792567,37.8781495 L819.693311,37.8389939 C818.885905,37.8194161 818.166579,38.2354443 817.74575,38.8864062 C817.3396,38.264811 816.654528,37.8634661 815.886269,37.8634661 L804.274302,37.8389939 L800.87341,37.8389939 C800.242165,37.8389939 799.650067,38.1081886 799.209664,38.5633725 C799.209664,38.5633725 787.52919,51.954588 781.324396,58.674668 C783.139837,48.029239 788.145754,18.8044774 788.145754,18.8044774 C788.160434,18.6674328 788.175114,18.549966 788.175114,18.4129213 C788.175114,17.8892152 787.984273,17.3704035 787.636844,16.9690586 C787.21112,16.4502469 786.579876,16.1614743 785.914377,16.1614743 L773.279696,16.1321076 C772.168901,16.1272131 771.219587,16.9152196 771.038532,17.9968931 C770.74493,19.7393173 769.433507,27.5165986 767.676787,37.8781495 C767.657214,37.8438883 767.642534,37.8194161 767.618067,37.7900494 C767.17277,37.2663432 766.526845,36.992254 765.841773,37.0167263 C760.459066,37.1733487 755.59995,39.3807457 751.367185,42.1118488 Z M814.658033,106.32214 C809.456381,97.9624191 794.257573,73.5586908 792.921683,71.4051328 C794.678403,69.3298859 813.180235,46.7811542 816.938344,42.3663602 L815.274598,51.1078481 C815.14737,51.7734934 815.333318,52.4587164 815.763935,52.9677392 C816.194551,53.4816565 816.825796,53.7900068 817.505974,53.7900068 L823.270364,53.7900068 C822.614653,57.7740892 816.586021,94.5167263 814.658033,106.32214 Z M380.826524,77.1316394 C378.188998,86.3429946 369.469012,95.1089547 360.959442,97.1744127 C354.45126,98.0358359 349.675331,97.4240296 346.347839,95.2704716 C342.844186,92.8624021 341.087466,88.6825417 339.727109,84.9089207 C339.492228,83.5580524 339.369893,82.1973953 339.369893,80.8709993 C339.369893,72.4819118 343.857114,64.3962802 352.112229,58.2048008 C356.858798,54.8814692 363.303366,53.62849 368.960102,54.9255192 C372.150579,55.6596868 376.515465,57.5587334 379.241072,62.4923391 C380.767804,65.1696033 381.580103,68.5614573 381.580103,71.8701055 C381.580103,73.7006299 381.325648,75.4968931 380.826524,77.1316394 Z M316.493388,17.9283708 L313.762888,32.7585546 C313.63566,33.4193054 313.816715,34.1094229 314.247331,34.6429179 C314.677948,35.1519408 315.314086,35.4553967 316.004051,35.4553967 L329.20147,35.4553967 C330.287798,35.4553967 331.232219,34.6820735 331.427954,33.5955056 L333.908892,18.8974719 C334.016546,18.2416156 333.840385,17.5514981 333.419555,17.0375809 C332.988939,16.5236636 332.352801,16.2202077 331.697089,16.2153132 L318.724765,16.1076353 C317.638437,16.0978464 316.703803,16.8711696 316.493388,17.9283708 Z M287.984614,77.1316394 L287.984614,77.1316394 C288.478845,75.4968931 288.71862,73.7006299 288.71862,71.8701055 C288.71862,68.5614573 287.916107,65.1696033 286.394269,62.4923391 C283.653982,57.5587334 279.293989,55.6596868 276.098618,54.9255192 C270.456563,53.62849 263.997314,54.8814692 259.250745,58.2048008 C251.01031,64.3962802 246.50841,72.4819118 246.50841,80.8709993 C246.50841,82.1973953 246.635637,83.5580524 246.870519,84.9089207 C248.230876,88.6825417 249.987596,92.8624021 253.496142,95.2704716 C256.823634,97.4240296 261.604456,98.0358359 268.102852,97.1744127 C276.617316,95.1089547 285.327514,86.3429946 287.984614,77.1316394 Z M179.723695,66.5498383 L179.723695,66.5498383 C185.125976,66.5008938 210.997223,66.2561713 214.721078,66.2219101 C214.451943,63.7159517 213.130733,61.3666156 210.365979,58.5963568 C207.312516,55.9827205 203.128684,54.7542135 197.188133,54.7199523 C190.753351,55.6205312 183.237135,59.8542305 179.723695,66.5498383 Z M710.101395,77.1316394 C707.468762,86.3429946 698.75367,95.1089547 690.234313,97.1744127 C683.721237,98.0358359 678.945308,97.4240296 675.63739,95.2704716 C672.12395,92.8624021 670.362337,88.6825417 669.00198,84.9089207 C668.776885,83.5580524 668.639871,82.1973953 668.639871,80.8709993 C668.639871,72.4819118 673.131984,64.3962802 681.396886,58.2048008 C686.128775,54.8814692 692.588024,53.62849 698.239866,54.9255192 C701.42545,55.6596868 705.800123,57.5587334 708.520837,62.4923391 C710.032888,65.1696033 710.850081,68.5614573 710.850081,71.8701055 C710.850081,73.7006299 710.600519,75.4968931 710.101395,77.1316394 Z M0,111.412368 L0,110.007661 C0.0685071807,109.860827 0.156587842,109.718888 0.269135353,109.596527 L94.3050277,1.19424583 C94.6328834,0.83205652 95.0928602,0.616700715 95.591984,0.616700715 L110.776111,0.616700715 C111.275235,0.616700715 111.754785,0.846739871 112.082641,1.23829588 C112.32731,1.54175179 112.469217,1.93820225 112.469217,2.30528601 C112.469217,2.41296391 112.44475,2.54021961 112.425177,2.65279196 C112.425177,2.65279196 100.646835,60.8331205 98.4594988,71.3561883 C105.872954,62.9768897 160.610192,1.19424583 160.610192,1.19424583 C160.923368,0.81737317 161.393131,0.616700715 161.867788,0.616700715 L176.156429,0.616700715 C176.680019,0.616700715 177.174249,0.851634321 177.497212,1.26276813 C177.815281,1.67390194 177.932722,2.2171859 177.800601,2.71641982 L162.802422,63.6229571 C162.924756,63.3978124 163.03241,63.1775621 163.144958,62.9622063 C170.284384,49.0766513 183.848806,39.3171178 198.528916,37.5208546 C198.572957,37.5110657 198.631677,37.5110657 198.690398,37.5110657 C211.966111,36.8356316 222.212827,41.8622319 228.3589,52.0133214 C228.393154,52.0671604 228.417621,52.1161049 228.456768,52.1748383 C230.663678,56.6092101 232.30785,62.5657559 232.601452,68.6985019 C235.106858,61.3861934 239.559824,54.6220633 245.749937,48.9151345 C256.241323,39.155601 269.032592,35.3134576 281.784714,38.1130831 C281.916835,38.1424498 282.073423,38.1962887 282.205544,38.2501277 L283.38974,38.7591505 C286.218108,39.9778686 289.296038,41.3287368 291.89931,43.6633895 C293.279241,37.1733487 297.321164,17.9283708 297.321164,17.9283708 C297.546259,16.8858529 298.471106,16.1321076 299.542754,16.1321076 L311.267269,16.1321076 C311.947447,16.1321076 312.583586,16.4355635 313.014202,16.9396919 C313.444819,17.4585036 313.625873,18.1437266 313.508433,18.8044774 L296.406104,111.04039 C296.200583,112.117169 295.265949,112.890492 294.169834,112.890492 L282.538293,112.856231 C281.858115,112.856231 281.21219,112.572353 280.781574,112.058435 C280.439038,111.647302 280.257983,111.133384 280.257983,110.609678 C280.257983,110.467739 280.272663,110.3258 280.302023,110.19365 C280.302023,110.19365 280.595626,108.647004 280.781574,107.624064 C271.298222,113.477826 261.69743,115.75864 252.703416,114.128788 C242.417552,112.082908 232.841227,102.024813 230.913239,91.2472336 C230.384755,88.359508 230.149874,85.466888 230.179234,82.618318 C229.773084,82.9854018 229.234813,83.205652 228.657396,83.205652 C228.657396,83.205652 177.208503,83.2252298 174.649271,83.2301243 C174.59055,83.4503745 174.556297,83.651047 174.556297,83.8859806 C174.556297,84.7131427 174.840112,85.7850272 175.212008,87.0086398 C175.212008,87.0086398 175.368596,87.5666071 175.441996,87.8064351 C178.006122,94.1055924 184.157089,98.0554137 191.135034,97.8890024 C198.073833,97.73238 204.503721,94.4090483 210.214284,88.0217909 C210.635114,87.5372404 211.256572,87.2631512 211.89271,87.2631512 L223.935294,87.2631512 C224.71334,87.2631512 225.442452,87.6644961 225.848601,88.3252469 C226.269431,88.9811032 226.323258,89.8082652 225.995403,90.5081716 C219.159365,104.883172 203.828436,114.539922 187.739035,114.539922 C176.547898,114.104316 167.152628,108.656793 161.921615,99.548221 C159.318342,94.6929265 158.085213,88.6678584 158.158613,82.5008512 L151.092587,111.197012 C150.901746,111.970335 150.211781,112.498936 149.433735,112.498936 L134.200674,112.498936 C133.68687,112.498936 133.192639,112.259108 132.879464,111.847974 C132.629902,111.539624 132.502674,111.167646 132.502674,110.800562 C132.502674,110.658623 132.522248,110.536261 132.546715,110.404111 C138.497053,85.6284048 146.840249,50.4128362 149.869245,36.4783367 C142.583017,45.0093633 85.4871748,111.79903 85.4871748,111.79903 C85.1739991,112.175902 84.709129,112.386364 84.2148986,112.386364 L71.3453354,112.498936 C70.8266381,112.498936 70.3470879,112.273791 70.0192321,111.862657 C69.7745636,111.564096 69.6375492,111.187223 69.6375492,110.800562 C69.6375492,110.683095 69.6424426,110.560734 69.6718028,110.443267 C75.1181237,85.3738934 82.7371008,49.6737743 85.4186676,35.7882193 C78.3966816,44.1773068 21.7706034,111.896919 21.7706034,111.896919 C21.4427476,112.28358 20.9387305,112.508725 20.4151399,112.498936 C16.0208936,112.347208 12.708082,112.366786 8.86189317,112.386364 L1.53162483,112.386364 C0.875913239,112.401047 0.274028723,112.014385 0,111.412368 Z M731.035232,38.6172114 C730.614402,38.1081886 729.978264,37.8047327 729.302979,37.8047327 L717.568678,37.8047327 C716.501923,37.8047327 715.56729,38.5535836 715.351981,39.6009959 L714.446708,44.0402622 C711.838542,41.7056095 709.240162,40.2079077 705.516307,38.7591505 L704.346792,38.2501277 C704.204884,38.1962887 704.062977,38.1424498 703.916175,38.1130831 C691.17384,35.3134576 678.372784,39.155601 667.886292,48.9151345 C662.655279,53.7312734 658.686756,59.315841 656.054123,65.3311202 L671.473132,2.71641982 C671.60036,2.2171859 671.487812,1.67390194 671.16485,1.26276813 C670.846781,0.851634321 670.357444,0.616700715 669.833853,0.616700715 L655.550106,0.616700715 C655.050982,0.616700715 654.600792,0.81737317 654.27783,1.19424583 C654.27783,1.19424583 599.545486,62.9768897 592.13203,71.3561883 C594.314473,60.8331205 606.523431,2.65279196 606.523431,2.65279196 C606.523431,2.54021961 606.552791,2.41296391 606.552791,2.30528601 C606.552791,1.92841335 606.435351,1.54175179 606.176002,1.23829588 C605.85304,0.846739871 605.368596,0.616700715 604.864579,0.616700715 L589.08346,0.616700715 C588.584337,0.616700715 588.119467,0.83205652 587.801397,1.19424583 L508.978993,92.2359125 C507.657783,78.9817416 501.350229,64.5480082 501.350229,64.5480082 C490.785443,42.8998553 467.282586,35.8861083 453.953046,48.3033282 L453.860072,48.322906 L451.770603,49.8401856 C461.439903,34.4079843 485.970367,35.0932074 501.766165,53.2663006 C501.766165,53.2663006 508.783258,61.7043327 513.764709,74.2585972 C515.090812,69.8242254 515.903111,65.2332312 516.14778,60.5394535 C507.926918,49.409474 498.658875,42.875383 498.658875,42.875383 C478.708606,29.4156452 454.824066,35.1029963 449.4854,52.5174498 L449.416892,52.5908665 L448.384391,54.945097 C449.03521,36.7328481 470.614971,25.0693735 493.369142,32.9053882 C493.369142,32.9053882 504.080729,36.8356316 514.895077,45.5526473 C514.748276,44.8576353 514.601475,44.1626234 514.410633,43.4676115 C513.241118,38.8668284 511.548012,34.5009789 509.360676,30.4385853 C496.745568,24.976379 485.56911,23.9583333 485.56911,23.9583333 C461.55245,22.2893258 443.725903,39.1311287 447.806974,56.8930882 L447.777613,56.9860827 L448.046749,59.5507746 C439.517605,43.4480337 452.367595,22.5732039 475.987892,17.9626319 C475.987892,17.9626319 486.953934,16.0586908 500.440062,18.0703098 C497.019596,14.4582057 493.114687,11.2914964 488.784054,8.61912666 C475.263673,10.2049285 465.178437,14.8840228 465.178437,14.8840228 C443.559528,25.4364573 436.532649,48.9542901 448.947129,62.2965611 L448.961809,62.3748723 L450.48854,64.4794859 C435.049958,54.7982635 435.74971,30.2672795 453.904113,14.4777835 C453.904113,14.4777835 462.389216,7.40040858 475.009218,2.39338611 C469.802672,0.83205652 464.405285,0.039155601 458.958964,0 C448.408858,8.03179265 442.248105,16.7585972 442.248105,16.7585972 C428.796231,36.7230592 434.47254,60.5932925 451.883151,65.9429265 L451.946765,66.0016599 L454.315156,67.0539666 C436.111819,66.3981103 424.450918,44.8135853 432.285204,22.0494978 C432.285204,22.0494978 435.891618,12.2361253 443.848237,1.91862445 C439.29251,3.09818693 434.981451,4.82103337 430.939527,6.98927477 C425.801488,19.2498723 424.842388,29.9197736 424.842388,29.9197736 C423.163962,53.9466292 440.016728,71.777111 457.774768,67.700034 L457.853062,67.7245063 L460.436762,67.4357337 C444.332681,75.9863381 423.442884,63.1237232 418.857796,39.4884236 C418.857796,39.4884236 417.017889,28.9310947 418.857796,15.7748127 C415.021394,19.4113892 411.664542,23.5863551 408.885108,28.2458716 C410.607574,41.21127 415.006714,50.7358699 415.006714,50.7358699 C425.561713,72.3742339 449.06457,79.3928754 462.399003,66.970761 L462.496871,66.9511832 L464.581446,65.4387981 C454.921934,80.8709993 430.381683,80.1857763 414.600564,62.012683 C414.600564,62.012683 406.50693,51.8958546 402.279059,40.1198076 C402.283952,39.5667348 402.117577,39.0381342 401.775042,38.6172114 C401.339532,38.1081886 400.703393,37.8047327 400.018322,37.8047327 L388.2987,37.8047327 C387.222159,37.8047327 386.297312,38.5535836 386.072217,39.6009959 C386.072217,39.6009959 385.171837,40.9665475 384.7559,43.6633895 C382.152628,41.3287368 379.069804,39.9778686 376.251223,38.7591505 L375.062134,38.2501277 C374.92512,38.1962887 374.773426,38.1424498 374.636411,38.1130831 C361.898969,35.3134576 349.102806,39.155601 338.611421,48.9151345 C332.416414,54.6220633 327.963448,61.3861934 325.438469,68.6985019 C325.438469,68.6985019 325.360175,68.884491 325.22316,69.178158 L330.209505,40.4477358 C330.317159,39.7967739 330.136104,39.1164454 329.705487,38.6074225 C329.265084,38.0983997 328.628946,37.7998383 327.963448,37.8047327 L315.455994,37.8194161 C314.359879,37.829205 313.425245,38.6074225 313.224617,39.6939905 L300.301227,110.19365 C300.188679,110.854401 300.369734,111.534729 300.800351,112.058435 C301.226074,112.567458 301.867105,112.856231 302.537497,112.856231 L315.720236,112.890492 C316.835924,112.890492 317.780345,112.092697 317.961399,111.001234 L322.94285,82.3197566 C322.996677,82.5008512 323.040717,82.618318 323.040717,82.618318 C322.996677,85.466888 323.231559,88.359508 323.764936,91.2472336 C325.702711,102.024813 335.259462,112.082908 345.560006,114.128788 C354.544234,115.75864 364.154813,113.477826 373.638164,107.624064 C373.452216,108.647004 373.15372,110.19365 373.15372,110.19365 C373.129253,110.3258 373.119467,110.467739 373.119467,110.609678 C373.119467,111.133384 373.300521,111.647302 373.638164,112.058435 C374.063887,112.572353 374.704918,112.856231 375.394884,112.856231 L387.026424,112.890492 C388.122539,112.890492 389.06696,112.117169 389.257801,111.04039 L399.499624,55.5520089 C407.162642,64.6556861 417.189157,72.4280729 417.189157,72.4280729 C437.134534,85.8975996 461.004393,80.2102486 466.343059,62.8006895 L466.421353,62.7272727 L467.458748,60.3632533 C466.80793,78.5755022 445.223274,90.2438713 422.46421,82.3980678 C422.46421,82.3980678 412.653003,78.790858 402.313312,70.8324821 C402.401393,71.2093548 402.474793,71.6009108 402.572661,71.9826779 C403.800897,76.7498723 405.57719,81.2674498 407.877074,85.466888 C419.904978,90.4200715 430.278922,91.3549115 430.278922,91.3549115 C454.280902,93.0337079 472.112343,76.1821161 468.031272,58.4201566 L468.065526,58.3271621 L467.78171,55.7526813 C476.320641,71.8554222 463.465758,92.7645131 439.840567,97.340824 C439.840567,97.340824 429.515556,99.1468761 416.572593,97.3995574 C419.670096,100.664156 423.163962,103.591037 427.019938,106.096995 C440.432665,104.476932 450.3711,99.8516769 450.3711,99.8516769 C471.999795,89.3041369 479.031568,65.7814096 466.612195,52.4538219 L466.587728,52.3510385 L465.070783,50.2708972 C480.509366,59.9423306 479.819401,84.4635257 461.660104,100.267705 C461.660104,100.267705 452.998839,107.462547 440.197783,112.479358 C443.730796,113.66871 447.356784,114.515449 451.031704,115 L456.26761,115 C467.023238,106.889896 473.296538,97.9771025 473.296538,97.9771025 C486.763093,78.0175349 481.086783,54.1326183 463.671279,48.7976677 L463.597879,48.7242509 L461.244168,47.6817331 C479.452398,48.3424838 491.113299,69.9270089 483.279013,92.6910964 C483.279013,92.6910964 479.364317,103.34142 470.688372,114.143471 C471.388124,113.986849 472.058516,113.84491 472.748481,113.663815 C477.14762,112.54788 481.287412,110.918029 485.138494,108.930882 C490.521201,96.405984 491.509662,85.3396323 491.509662,85.3396323 C493.197874,61.3421433 476.340214,43.4920838 458.572388,47.5740552 L458.498987,47.5544774 L455.929968,47.8285666 C472.019369,39.2926456 492.918952,52.150366 497.513827,75.7856656 C497.513827,75.7856656 500.166033,86.6366616 498.179325,99.4894876 C497.797642,101.344484 497.019596,104.036432 495.522225,106.90458 C495.067142,107.702375 494.499511,108.647004 493.814439,109.743361 C493.829119,109.728677 493.834012,109.713994 493.834012,109.713994 C493.829119,109.743361 493.799759,109.767833 493.780185,109.802094 C493.765505,109.836355 493.765505,109.84125 493.765505,109.865722 C493.49637,110.3258 493.437649,110.898451 493.667638,111.412368 C493.936773,112.014385 494.543551,112.401047 495.213943,112.386364 L502.534424,112.386364 C506.380613,112.366786 509.688531,112.347208 514.087671,112.498936 C514.611262,112.508725 515.110385,112.28358 515.448028,111.896919 C515.448028,111.896919 572.074106,44.1773068 579.091199,35.7882193 C576.404739,49.6737743 568.790655,85.3738934 563.339441,110.443267 C563.319867,110.560734 563.31008,110.683095 563.31008,110.800562 C563.31008,111.187223 563.437308,111.564096 563.677083,111.862657 C564.000046,112.273791 564.489383,112.498936 565.017866,112.498936 L577.892323,112.386364 C578.38166,112.386364 578.84653,112.175902 579.164599,111.79903 C579.164599,111.79903 636.245761,45.0093633 643.551562,36.4783367 C640.507886,50.4128362 632.174477,85.6284048 626.233926,110.404111 C626.194779,110.536261 626.175205,110.658623 626.175205,110.800562 C626.175205,111.167646 626.302433,111.539624 626.542208,111.847974 C626.870064,112.259108 627.349614,112.498936 627.878098,112.498936 L643.106266,112.498936 C643.884312,112.498936 644.574277,111.970335 644.760225,111.197012 L651.351594,84.4537368 L652.266655,80.6947991 C652.296015,81.7666837 652.310695,82.618318 652.310695,82.618318 C652.281335,85.466888 652.516216,88.359508 653.049594,91.2472336 C654.972688,102.024813 664.549013,112.082908 674.829984,114.128788 C683.814211,115.75864 693.434577,113.477826 702.917928,107.624064 C702.727087,108.647004 702.433484,110.19365 702.433484,110.19365 C702.409017,110.3258 702.394337,110.467739 702.394337,110.609678 C702.394337,111.133384 702.570499,111.647302 702.903248,112.058435 C703.348545,112.572353 703.989576,112.856231 704.655074,112.856231 L716.296402,112.890492 C717.402303,112.890492 718.336937,112.117169 718.532672,111.04039 L729.043631,55.1751362 L731.563716,40.1198076 C731.573503,39.5667348 731.402235,39.0381342 731.035232,38.6172114 L731.035232,38.6172114 Z" id="Fill-2"></path>
            </g>
        </g>
    </g>
</svg>