<svg version="1.1" id="outlines" xmlns="http://www.w3.org/2000/svg" xmlns:xlink="http://www.w3.org/1999/xlink" x="0px" y="0px" viewBox="58.27000045776367 59 758.7999877929688 215.98001098632812" style="enable-background:new 0 0 876 333;" xml:space="preserve">
<style type="text/css">
	.st0{fill:#E8530E;}
	.st1{fill:#2D2E87;}
	.st2{fill:#9083BD;}
	.st3{display:none;}
	.st4{display:inline;fill:#2D2E87;}
	.st5{display:inline;}
</style>
    <g>
	<g>
		<g>
			<path class="st0" d="M223.24,59.02h92.64V83.7l-59.61,88.65h59.61v26.01h-97.19v-25.25l61.51-88.65h-56.95V59.02H223.24z"></path>
            <path class="st0" d="M349.47,59.02h93.59v25.44h-63.22v29.61h43.47v25.44h-43.09v32.84h67.2v26.01h-97.95L349.47,59.02
				L349.47,59.02z"></path>
            <path class="st0" d="M504.64,198.36h-30.18V59.02h44.99c22.59,0,51.26,3.04,51.26,40.43c0,17.65-7.02,31.13-26.58,37.02
				l30.37,61.89h-33.22l-26.39-56.95h-10.25V198.36z M504.64,119.19c17.28,0,19.93,0,24.3-1.52c9.68-3.42,10.44-11.01,10.44-18.6
				c0-9.68-3.04-14.43-9.11-16.71c-4.75-1.71-8.55-1.71-25.63-1.71V119.19z"></path>
            <path class="st0" d="M689.63,59.02v25.44h-34.74v113.9H623V84.46h-35.5V59.02H689.63z"></path>
            <path class="st0" d="M744.36,198.36V143.3l-44.04-84.29h32.84l17.65,34.74c1.33,2.65,6.84,14.62,7.98,17.08h0.95
				c2.66-5.89,3.22-6.84,7.97-16.71L784.61,59h32.46l-41.96,83.15v56.19h-30.75V198.36z"></path>
		</g>
        <polyline class="st0" points="129.74,117.68 101.33,198.21 58.27,198.21 108.18,59.02 		"></polyline>
        <polygon class="st1" points="129.74,117.68 108.18,59.02 151.3,59.02 		"></polygon>
        <polygon class="st2" points="155.28,66.81 133.84,125.98 159.36,198.28 202.42,198.28 		"></polygon>
        <g class="st3">
			<path class="st4" d="M218.68,243.13h4.34v31.43h-4.34V243.13z"></path>
            <path class="st4" d="M236.37,247.35h-7.86v-4.22h20.07v4.22h-7.87v27.21h-4.34V247.35z"></path>
            <path class="st4" d="M280.57,260.83h-11.38v13.73h-4.34v-31.43h4.34v13.48h11.38v-13.48h4.34v31.43h-4.34V260.83z"></path>
            <path class="st4" d="M307.79,267.53h-10.88l-2.2,7.03h-4.6l10.43-31.43h3.64l10.43,31.43h-4.59L307.79,267.53z M306.55,263.31
				l-4.15-13.75h-0.08l-4.15,13.75H306.55z"></path>
            <path class="st4" d="M319.75,243.13h11.21c2.39,0,4.34,0.69,5.85,2.07c1.82,1.57,2.77,3.8,2.84,6.71
				c-0.05,4.27-1.9,7.17-5.54,8.71l6.64,13.95h-5.16l-5.94-13.43h-5.56v13.43h-4.34V243.13z M324.1,256.9h6.59
				c1.63-0.03,2.85-0.55,3.67-1.56c0.8-0.94,1.2-2.09,1.2-3.46c-0.03-1.64-0.51-2.83-1.44-3.57c-0.74-0.65-1.8-0.97-3.2-0.97h-6.82
				V256.9z"></path>
            <path class="st4" d="M346.42,243.13h10.04c3.88,0.03,6.8,1.8,8.74,5.3c0.7,1.18,1.13,2.41,1.32,3.71
				c0.14,1.3,0.22,3.53,0.22,6.71c0,3.38-0.11,5.74-0.33,7.07c-0.1,0.68-0.26,1.28-0.47,1.81c-0.22,0.52-0.49,1.06-0.81,1.62
				c-0.84,1.48-2.01,2.7-3.5,3.66c-1.48,1.04-3.3,1.55-5.45,1.55h-9.74v-31.43H346.42z M350.76,270.08h5.2
				c2.44,0,4.21-0.91,5.32-2.74c0.49-0.68,0.79-1.53,0.93-2.57c0.12-1.02,0.18-2.94,0.18-5.75c0-2.74-0.06-4.69-0.18-5.88
				c-0.16-1.18-0.53-2.14-1.12-2.87c-1.21-1.83-2.92-2.71-5.12-2.66h-5.2v22.47H350.76z"></path>
            <path class="st4" d="M371.33,243.13h4.58l4.51,22.35h0.08l5.57-22.35h3.15l5.55,22.35h0.08l4.53-22.35h4.58l-7.16,31.43h-3.64
				l-5.47-22.67h-0.08l-5.49,22.67h-3.62L371.33,243.13z"></path>
            <path class="st4" d="M422.97,267.53h-10.88l-2.2,7.03h-4.6l10.43-31.43h3.64l10.43,31.43h-4.58L422.97,267.53z M421.73,263.31
				l-4.15-13.75h-0.08l-4.15,13.75H421.73z"></path>
            <path class="st4" d="M434.93,243.13h11.21c2.39,0,4.34,0.69,5.85,2.07c1.82,1.57,2.76,3.8,2.84,6.71
				c-0.06,4.27-1.9,7.17-5.54,8.71l6.64,13.95h-5.16l-5.94-13.43h-5.56v13.43h-4.35v-31.44H434.93z M439.28,256.9h6.59
				c1.63-0.03,2.85-0.55,3.67-1.56c0.8-0.94,1.2-2.09,1.2-3.46c-0.03-1.64-0.51-2.83-1.44-3.57c-0.74-0.65-1.8-0.97-3.2-0.97h-6.82
				V256.9z"></path>
            <path class="st4" d="M461.59,243.13h18.33v4.48h-13.98v8.99h11.94v4.22h-11.94v9.25h13.98v4.48h-18.33V243.13z"></path>
            <path class="st4" d="M494.3,243.13h4.6l6.5,23.94h0.08l6.52-23.94h4.6l-9.47,31.43h-3.38L494.3,243.13z"></path>
            <path class="st4" d="M519.99,258.84c0-3.66,0.1-6.11,0.29-7.35c0.21-1.24,0.53-2.24,0.97-3c0.7-1.45,1.81-2.74,3.34-3.87
				c1.51-1.15,3.39-1.73,5.65-1.76c2.28,0.03,4.18,0.62,5.7,1.77c1.51,1.14,2.59,2.43,3.26,3.88c0.49,0.76,0.82,1.76,1,3
				c0.17,1.23,0.26,3.68,0.26,7.33c0,3.59-0.09,6.02-0.26,7.29c-0.18,1.26-0.52,2.28-1,3.04c-0.67,1.45-1.76,2.73-3.26,3.84
				c-1.52,1.15-3.42,1.75-5.7,1.81c-2.26-0.06-4.14-0.66-5.65-1.81c-1.53-1.11-2.65-2.39-3.34-3.84c-0.21-0.47-0.4-0.93-0.57-1.36
				c-0.16-0.44-0.29-1-0.4-1.68C520.09,264.86,519.99,262.44,519.99,258.84z M524.33,258.84c0,3.1,0.1,5.19,0.32,6.29
				c0.18,1.09,0.56,1.98,1.12,2.66c0.46,0.65,1.06,1.17,1.81,1.58c0.74,0.47,1.62,0.71,2.64,0.71c1.04,0,1.94-0.24,2.7-0.71
				c0.72-0.4,1.3-0.93,1.73-1.58c0.56-0.68,0.95-1.56,1.16-2.66c0.2-1.09,0.3-3.19,0.3-6.29s-0.1-5.2-0.3-6.33
				c-0.21-1.06-0.6-1.94-1.16-2.61c-0.43-0.65-1.01-1.19-1.73-1.62c-0.76-0.42-1.66-0.64-2.7-0.67c-1.02,0.03-1.91,0.25-2.64,0.67
				c-0.75,0.43-1.35,0.97-1.81,1.62c-0.56,0.68-0.94,1.55-1.12,2.61C524.43,253.64,524.33,255.75,524.33,258.84z"></path>
            <path class="st4" d="M546.65,258.84c0-3.66,0.1-6.11,0.29-7.35c0.21-1.24,0.53-2.24,0.97-3c0.7-1.45,1.81-2.74,3.34-3.87
				c1.51-1.15,3.39-1.73,5.65-1.76c2.28,0.03,4.18,0.62,5.7,1.77c1.51,1.14,2.59,2.43,3.26,3.88c0.49,0.76,0.82,1.76,1,3
				c0.17,1.23,0.26,3.68,0.26,7.33c0,3.59-0.09,6.02-0.26,7.29c-0.18,1.26-0.52,2.28-1,3.04c-0.67,1.45-1.76,2.73-3.26,3.84
				c-1.52,1.15-3.42,1.75-5.7,1.81c-2.26-0.06-4.14-0.66-5.65-1.81c-1.53-1.11-2.65-2.39-3.34-3.84c-0.21-0.47-0.4-0.93-0.57-1.36
				c-0.16-0.44-0.29-1-0.4-1.68C546.75,264.86,546.65,262.44,546.65,258.84z M550.99,258.84c0,3.1,0.1,5.19,0.32,6.29
				c0.18,1.09,0.56,1.98,1.12,2.66c0.46,0.65,1.06,1.17,1.81,1.58c0.74,0.47,1.62,0.71,2.64,0.71c1.04,0,1.94-0.24,2.7-0.71
				c0.72-0.4,1.3-0.93,1.73-1.58c0.56-0.68,0.95-1.56,1.16-2.66c0.2-1.09,0.3-3.19,0.3-6.29s-0.1-5.2-0.3-6.33
				c-0.21-1.06-0.6-1.94-1.16-2.61c-0.43-0.65-1.01-1.19-1.73-1.62c-0.76-0.42-1.66-0.64-2.7-0.67c-1.02,0.03-1.91,0.25-2.64,0.67
				c-0.75,0.43-1.35,0.97-1.81,1.62c-0.56,0.68-0.94,1.55-1.12,2.61C551.09,253.64,550.99,255.75,550.99,258.84z"></path>
            <path class="st4" d="M574.28,243.13h11.21c2.39,0,4.34,0.69,5.85,2.07c1.82,1.57,2.76,3.8,2.84,6.71
				c-0.06,4.27-1.9,7.17-5.54,8.71l6.64,13.95h-5.16l-5.94-13.43h-5.56v13.43h-4.35L574.28,243.13L574.28,243.13z M578.63,256.9
				h6.59c1.63-0.03,2.85-0.55,3.67-1.56c0.8-0.94,1.2-2.09,1.2-3.46c-0.03-1.64-0.51-2.83-1.44-3.57c-0.74-0.65-1.8-0.97-3.2-0.97
				h-6.82V256.9z"></path>
            <path class="st4" d="M612.21,243.13h18.33v4.48h-13.98v8.99h11.94v4.22h-11.94v9.25h13.98v4.48h-18.33V243.13z"></path>
            <path class="st4" d="M645.59,262.86l-6.29,11.7h-4.9l8.77-16.1l-8.22-15.33h4.92l5.72,10.9l5.72-10.9h4.9l-8.47,15.33l9.04,16.1
				h-4.92L645.59,262.86z"></path>
            <path class="st4" d="M661.42,243.13h10.4c1.13,0,2.22,0.12,3.27,0.35c1.05,0.3,2.11,0.92,3.19,1.85c0.9,0.7,1.64,1.71,2.2,3.02
				c0.59,1.26,0.88,2.76,0.88,4.48c0,2.33-0.75,4.45-2.25,6.36c-1.54,2.01-3.78,3.05-6.74,3.1h-6.62v12.27h-4.35v-31.43H661.42z
				 M665.77,257.81h6.45c1.62-0.03,2.83-0.58,3.65-1.64c0.78-1.04,1.16-2.2,1.16-3.47c0-1.06-0.16-1.94-0.47-2.67
				c-0.33-0.65-0.79-1.16-1.38-1.54c-0.89-0.62-1.93-0.91-3.12-0.89h-6.29L665.77,257.81L665.77,257.81z"></path>
            <path class="st4" d="M686.18,243.13h18.33v4.48h-13.98v8.99h11.94v4.22h-11.94v9.25h13.98v4.48h-18.33V243.13z"></path>
            <path class="st4" d="M710.61,243.13h11.21c2.39,0,4.34,0.69,5.85,2.07c1.82,1.57,2.76,3.8,2.84,6.71
				c-0.06,4.27-1.9,7.17-5.54,8.71l6.64,13.95h-5.16l-5.94-13.43h-5.56v13.43h-4.35L710.61,243.13L710.61,243.13z M714.96,256.9
				h6.59c1.63-0.03,2.85-0.55,3.67-1.56c0.8-0.94,1.2-2.09,1.2-3.46c-0.03-1.64-0.51-2.83-1.44-3.57c-0.74-0.65-1.8-0.97-3.2-0.97
				h-6.82V256.9z"></path>
            <path class="st4" d="M741.4,247.35h-7.86v-4.22h20.07v4.22h-7.87v27.21h-4.34V247.35z"></path>
            <path class="st4" d="M758.96,266.94c2.29,2.06,5,3.1,8.15,3.13c3.73-0.06,5.62-1.52,5.67-4.38c0.03-2.35-1.22-3.76-3.74-4.23
				c-1.15-0.17-2.42-0.37-3.8-0.58c-2.47-0.45-4.34-1.45-5.63-3c-1.33-1.6-1.99-3.54-1.99-5.83c0-2.75,0.83-4.96,2.5-6.64
				c1.61-1.67,3.9-2.52,6.86-2.54c3.57,0.08,6.67,1.17,9.3,3.25l-2.42,3.91c-2.15-1.56-4.52-2.36-7.11-2.42
				c-1.34,0-2.45,0.37-3.34,1.1c-0.93,0.76-1.41,1.9-1.44,3.41c0,0.91,0.32,1.73,0.97,2.46c0.64,0.75,1.67,1.27,3.09,1.56
				c0.79,0.14,1.86,0.31,3.23,0.49c2.69,0.4,4.68,1.46,5.96,3.17c1.27,1.68,1.91,3.64,1.91,5.87c-0.15,6.01-3.5,9.06-10.07,9.15
				c-4.25,0-7.9-1.43-10.95-4.29L758.96,266.94z"></path>
            <g class="st5">
				<path class="st1" d="M247.83,256.82h10.7v3.72h-10.7V256.82z"></path>
			</g>
		</g>
	</g>
        <g>
		<path class="st1" d="M500.68,274.98c-6.94,0-11.63-4.19-11.63-13.98v-3.97c0-9.78,4.69-13.98,11.63-13.98
			c6.99,0,11.68,4.19,11.68,13.98V261C512.36,270.79,507.67,274.98,500.68,274.98z M494.27,261c0,6.72,2.25,9.42,6.4,9.42
			s6.45-2.71,6.45-9.42v-3.97c0-6.72-2.3-9.42-6.45-9.42c-4.15,0-6.4,2.71-6.4,9.42V261z"></path>
            <path class="st1" d="M539.4,243.46v31.11h-4.64l-12.67-21.15v21.15h-5.05v-31.11h4.51l12.81,21.42v-21.42H539.4z"></path>
            <path class="st1" d="M550.58,270.07h13.84v4.51h-19.07v-31.11h5.23V270.07z"></path>
            <path class="st1" d="M566.81,243.46l6.22,12.45l6.27-12.45h6.04l-9.69,18.13v12.99h-5.23v-12.99l-9.69-18.13L566.81,243.46
			L566.81,243.46z"></path>
            <path class="st1" d="M618.84,243.46v4.55h-8.93v26.56h-5.23v-26.56h-8.97v-4.55H618.84z"></path>
            <path class="st1" d="M626.91,256.22h11.9v-12.76h5.23v31.11h-5.23v-13.84h-11.9v13.84h-5.23v-31.11h5.23V256.22z"></path>
            <path class="st1" d="M669.07,243.46v4.55h-13.84v8.21h12.49v4.51h-12.49v9.33h13.84v4.51H650v-31.11H669.07z"></path>
            <path class="st1" d="M693.5,243.46c7.3,0,11.05,2.71,11.05,8.07c0,3.2-1.85,5.77-4.55,6.76c3.52,0.99,5.55,3.43,5.55,7.35
			c0,4.69-2.98,8.93-11.05,8.93h-11v-31.11H693.5z M688.72,256.18h5.09c3.88,0,5.5-1.76,5.5-4.33c0-2.43-1.22-3.88-6.18-3.88h-4.42
			L688.72,256.18L688.72,256.18z M688.72,270.07h5.46c4.19,0,6.13-1.71,6.13-4.69c0-3.29-2.16-4.69-6.76-4.69h-4.83V270.07z"></path>
            <path class="st1" d="M728.8,243.46v4.55h-13.84v8.21h12.49v4.51h-12.49v9.33h13.84v4.51h-19.07v-31.11H728.8z"></path>
            <path class="st1" d="M749.04,250.99c-1.53-2.12-3.2-3.38-6.72-3.38c-3.2,0-5.1,1.44-5.1,4.06c0,2.98,2.34,4.15,6.67,5.09
			c6.27,1.35,9.51,3.7,9.51,9.29c0,4.64-3.11,8.93-10.6,8.93c-5.32,0-9.06-1.62-11.63-5.1l4.1-2.84c1.85,2.21,3.7,3.38,7.26,3.38
			c4.28,0,5.64-1.89,5.64-4.15c0-2.48-1.4-4.01-6.81-5.18c-6-1.26-9.38-4.15-9.38-9.42c0-4.69,3.07-8.61,10.37-8.61
			c4.96,0,8.43,1.67,10.64,5.09L749.04,250.99z"></path>
            <path class="st1" d="M777.35,243.46v4.55h-8.93v26.56h-5.23v-26.56h-8.97v-4.55H777.35z"></path>
	</g>
</g>
</svg>
