<svg xmlns="http://www.w3.org/2000/svg" xmlns:xlink="http://www.w3.org/1999/xlink" version="1.1" id="Laag_1" viewBox="0 0 170.08 170.08">
<style type="text/css">
	.st0{clip-path:url(#SVGID_2_);fill:#EA580C;}
	.st1{clip-path:url(#SVGID_2_);fill:#FFFFFF;}
	.st2{clip-path:url(#SVGID_2_);}
	.st3{clip-path:url(#SVGID_4_);}
	.st4{fill:#EA580C;}
	.st5{clip-path:url(#SVGID_6_);fill:#EA580C;}
	.st6{clip-path:url(#SVGID_8_);fill:#EA580C;}
</style>
<g>
	<g>
		<defs>
			<rect id="SVGID_1_" x="8.21" y="9.41" width="151.67" height="151.27"/>
		</defs>
		<clipPath id="SVGID_2_">
			<use xlink:href="#SVGID_1_" style="overflow:visible;"/>
		</clipPath>
		<path class="st0" d="M8.51,85.04c0-41.77,33.86-75.63,75.63-75.63c41.77,0,75.63,33.86,75.63,75.63s-33.86,75.63-75.63,75.63    C42.37,160.67,8.51,126.81,8.51,85.04"/>
		<path class="st1" d="M29.61,53.58c-1.95,1.91-3.15,4.51-3.15,7.42v48.51c0,2.91,1.2,5.51,3.15,7.42c1.95,1.9,4.62,3.07,7.6,3.07    h93.92c2.98,0,5.65-1.17,7.6-3.07c1.95-1.91,3.15-4.51,3.15-7.42V61c0-2.91-1.2-5.51-3.15-7.42c-1.95-1.9-4.62-3.07-7.6-3.07    H37.21C34.23,50.51,31.56,51.68,29.61,53.58"/>
		<path class="st2" d="M141.88,109.51c0,2.91-1.2,5.51-3.15,7.42c-1.95,1.9-4.62,3.07-7.6,3.07H37.21c-2.98,0-5.65-1.17-7.6-3.07    c-1.95-1.91-3.15-4.51-3.15-7.42V61c0-2.91,1.2-5.51,3.15-7.42c1.95-1.9,4.62-3.07,7.6-3.07h93.92c2.98,0,5.65,1.17,7.6,3.07    c1.95,1.91,3.15,4.51,3.15,7.42V109.51z M133.57,44.72v-8.41h-27.62v8.23H37.21c-9.32,0-16.87,7.37-16.87,16.46v48.51    c0,9.09,7.55,16.46,16.87,16.46h93.92c9.32,0,16.87-7.37,16.87-16.46V61C148,52.72,141.73,45.87,133.57,44.72"/>
	</g>
	<polygon points="34.99,56.15 38.94,56.15 38.94,68.61 39.02,68.61 44.79,56.15 48.74,56.15 43.36,67.07 49.75,83.44 45.57,83.44    41.07,71.33 38.94,75.27 38.94,83.44 34.99,83.44  "/>
	<path d="M57.74,64.01h-0.08l-1.94,9.89h3.95L57.74,64.01z M56.07,56.15h3.29l6.16,27.29h-3.95l-1.16-5.86h-5.39l-1.16,5.86h-3.95   L56.07,56.15z"/>
	<polygon points="67.25,56.15 71.05,56.15 76.13,70.6 76.21,70.6 81.24,56.15 85.08,56.15 85.08,83.44 81.13,83.44 81.13,66.84    81.05,66.84 77.14,78.57 75.16,78.57 71.29,66.84 71.21,66.84 71.21,83.44 67.25,83.44  "/>
	<polygon points="88.58,56.15 100.36,56.15 100.36,59.83 92.53,59.83 92.53,67.84 99.36,67.84 99.36,71.52 92.53,71.52 92.53,79.53    100.36,79.53 100.36,83.44 88.58,83.44  "/>
	<g>
		<defs>
			<rect id="SVGID_3_" x="8.21" y="9.41" width="151.67" height="151.27"/>
		</defs>
		<clipPath id="SVGID_4_">
			<use xlink:href="#SVGID_3_" style="overflow:visible;"/>
		</clipPath>
		<path class="st3" d="M106.72,68.34h2.25c2.75,0,3.18-1.53,3.18-4.25c0-2.76-0.47-4.25-3.37-4.25h-2.06V68.34z M102.77,56.15h6.36    c4.69,0,6.97,2.72,6.97,8.01c0,3.14-0.89,5.44-3.41,6.82l4.26,12.46h-4.19l-3.68-11.65h-2.37v11.65h-3.95V56.15z"/>
	</g>
	<path d="M125.17,64.01h-0.08l-1.94,9.89h3.95L125.17,64.01z M123.5,56.15h3.29l6.16,27.29h-3.95l-1.16-5.86h-5.39l-1.16,5.86h-3.95   L123.5,56.15z"/>
	<polygon class="st4" points="34.99,88.26 46.21,88.26 46.21,91.77 38.76,91.77 38.76,99.4 45.25,99.4 45.25,102.91 38.76,102.91    38.76,110.54 46.21,110.54 46.21,114.26 34.99,114.26  "/>
	<polygon class="st4" points="53.02,100.64 48.11,88.26 52.1,88.26 54.94,95.97 57.82,88.26 61.81,88.26 56.79,100.64 62.22,114.26    58.23,114.26 54.94,105.5 51.69,114.26 47.7,114.26  "/>
	<g>
		<defs>
			<rect id="SVGID_5_" x="8.21" y="9.41" width="151.67" height="151.27"/>
		</defs>
		<clipPath id="SVGID_6_">
			<use xlink:href="#SVGID_5_" style="overflow:visible;"/>
		</clipPath>
		<path class="st5" d="M67.68,100.61h1.81c3.06,0,3.1-1.79,3.1-4.38c0-2.45,0-4.46-2.95-4.46h-1.96V100.61z M63.91,88.26h5.65    c2.07,0,3.58,0.47,4.87,1.83c1.29,1.35,1.7,2.99,1.7,6.1c0,2.26-0.18,3.8-1.07,5.22c-1.03,1.68-2.7,2.7-5.46,2.7h-1.92v10.15    h-3.77V88.26z"/>
		<path class="st5" d="M82.08,99.88h2.14c2.62,0,3.03-1.46,3.03-4.05c0-2.63-0.44-4.05-3.21-4.05h-1.96V99.88z M78.32,88.26h6.06    c4.47,0,6.65,2.59,6.65,7.63c0,2.99-0.85,5.19-3.25,6.5l4.06,11.87h-3.99l-3.51-11.1h-2.25v11.1h-3.77V88.26z"/>
	</g>
	<polygon class="st4" points="93.6,88.26 104.82,88.26 104.82,91.77 97.36,91.77 97.36,99.4 103.86,99.4 103.86,102.91    97.36,102.91 97.36,110.54 104.82,110.54 104.82,114.26 93.6,114.26  "/>
	<g>
		<defs>
			<rect id="SVGID_7_" x="8.21" y="9.41" width="151.67" height="151.27"/>
		</defs>
		<clipPath id="SVGID_8_">
			<use xlink:href="#SVGID_7_" style="overflow:visible;"/>
		</clipPath>
		<path class="st6" d="M118.72,95.75h-3.77v-0.84c0-1.72-0.74-3.14-2.66-3.14c-2.07,0-2.55,1.64-2.55,3.36    c0,2.01,0.18,2.7,2.14,3.47l2.88,1.13c3.32,1.24,3.95,3.32,3.95,7.12c0,4.38-1.62,7.63-6.5,7.63c-3.66,0-6.43-2.67-6.43-6.17    v-1.39h3.77v1.17c0,1.35,0.74,2.66,2.66,2.66c2.55,0,2.73-1.5,2.73-3.87c0-2.78-0.33-3.21-2.18-3.94l-2.7-1.1    c-3.25-1.31-4.1-3.43-4.1-6.68c0-3.94,2.14-7.12,6.46-7.12c3.77,0,6.28,2.99,6.28,5.88V95.75z"/>
		<path class="st6" d="M133.48,95.75h-3.77v-0.84c0-1.72-0.74-3.14-2.66-3.14c-2.07,0-2.55,1.64-2.55,3.36    c0,2.01,0.18,2.7,2.14,3.47l2.88,1.13c3.32,1.24,3.95,3.32,3.95,7.12c0,4.38-1.62,7.63-6.5,7.63c-3.66,0-6.43-2.67-6.43-6.17    v-1.39h3.77v1.17c0,1.35,0.74,2.66,2.66,2.66c2.55,0,2.73-1.5,2.73-3.87c0-2.78-0.33-3.21-2.18-3.94l-2.7-1.1    c-3.25-1.31-4.1-3.43-4.1-6.68c0-3.94,2.14-7.12,6.46-7.12c3.77,0,6.28,2.99,6.28,5.88V95.75z"/>
	</g>
</g>
</svg>